<?xml version="1.0" standalone="no"?>
<!DOCTYPE svg PUBLIC "-//W3C//DTD SVG 20010904//EN"
 "http://www.w3.org/TR/2001/REC-SVG-20010904/DTD/svg10.dtd">
<svg version="1.0" xmlns="http://www.w3.org/2000/svg"
 width="300.000000pt" height="300.000000pt" viewBox="0 0 300.000000 300.000000"
 preserveAspectRatio="xMidYMid meet">
<metadata>
Created by potrace 1.11, written by Peter Selinger 2001-2013
</metadata>
<g transform="translate(0.000000,300.000000) scale(0.100000,-0.100000)"
fill="#000000" stroke="none">
<path d="M1040 1658 c-15 -34 -121 -569 -114 -579 3 -5 76 -9 164 -9 168 0
170 1 170 51 0 18 -8 19 -126 19 -97 0 -125 3 -121 13 2 6 12 56 22 109 l19
97 110 3 111 3 0 30 0 30 -103 3 c-102 3 -104 3 -99 25 3 12 11 52 18 90 l12
67 124 0 123 0 10 26 c6 14 8 30 4 35 -3 5 -75 9 -160 9 -151 0 -155 -1 -164
-22z"/>
<path d="M1513 1668 c-13 -17 -124 -578 -117 -589 3 -5 19 -9 35 -9 36 0 38 6
69 165 12 66 26 126 29 132 4 8 34 -37 71 -105 104 -191 105 -192 145 -192 25
0 35 4 35 16 0 8 -37 81 -82 161 l-81 145 138 132 c142 135 155 156 92 156
-27 0 -51 -19 -173 -141 l-142 -141 28 136 c15 74 25 138 22 141 -10 10 -60 5
-69 -7z"/>
</g>
</svg>
